<?xml version="1.0" encoding="utf-8"?>
<!-- Generator: Adobe Illustrator 24.1.1, SVG Export Plug-In . SVG Version: 6.00 Build 0)  -->
<svg version="1.1" id="Camada_1" xmlns="http://www.w3.org/2000/svg" xmlns:xlink="http://www.w3.org/1999/xlink" x="0px" y="0px"
	 viewBox="0 0 1000 387.4" style="enable-background:new 0 0 1000 387.4;" xml:space="preserve">
<style type="text/css">
	.st0{fill:#5FA5B3;}
	.st1{fill:#969696;}
</style>
<g>
	<g>
		<polygon class="st0" points="87.8,125.6 74.8,172.5 210.8,173.6 222.9,126.7 		"/>
		<polygon class="st0" points="325.7,127.6 277,127.2 264.9,174 312.7,174.4 		"/>
	</g>
</g>
<polygon class="st1" points="192.2,78.4 148.1,78.4 137.2,120.8 181.2,121.1 "/>
<polygon class="st0" points="122.5,177.9 88.8,309 132.9,309 166.5,178.2 "/>
<polygon class="st1" points="181.3,309 225.4,309 235.4,270 191.4,269.6 "/>
<polygon class="st1" points="284.7,78.4 240.6,78.4 206.2,212.3 250.1,212.8 "/>
<g>
	<g>
		<polygon class="st1" points="62.6,216.3 49.7,263.1 95.4,263.5 107.4,216.7 		"/>
		<polygon class="st1" points="300.5,218.2 161.6,217.1 149.6,263.9 287.5,265.1 		"/>
	</g>
</g>
<g>
	<g>
		<path class="st1" d="M408.9,166.9l-34.7,0l6.6-30.8l104.5,0.1l-6.6,30.8l-34.5,0l-20.9,98l-35.4,0L408.9,166.9z"/>
		<path class="st1" d="M487.7,169.5l31.6,0l-4,18.1c4.6-6.4,9.7-11.3,15.2-14.8c5.5-3.4,11-5.2,16.4-5.2c1.3,0,2.2,0,2.7,0
			c0.5,0,0.9,0.1,1.3,0.2l-6.6,31c-6.2,0-12,0.7-17.4,2.2c-5.4,1.4-9.8,3.9-13.1,7.2l-12,56.6l-34.5,0L487.7,169.5z"/>
		<path class="st1" d="M579.2,266.8c-5.3,0-10.1-0.9-14.2-2.8c-4.2-1.9-7.7-4.5-10.6-7.9c-2.9-3.4-5.1-7.4-6.6-12.2
			c-1.5-4.7-2.3-9.9-2.3-15.6c0-8.2,1.4-16,4.2-23.3c2.8-7.3,6.5-13.8,11.3-19.3c4.7-5.6,10.2-9.9,16.4-13.1
			c6.2-3.2,12.8-4.8,19.7-4.8c5.8,0,10.8,1.4,15,4.2c4.2,2.8,7,6.7,8.4,11.8l2.9-13.4l34.7,0L645.8,227c-0.4,1.8-0.5,3.3-0.5,4.4
			c0,3,1.6,4.6,4.9,4.7l-6.2,29c-6,1.2-10.9,1.8-14.7,1.8c-5.4,0-9.7-1-12.9-3.1c-3.1-2.1-4.7-5.7-4.7-10.9c0-1.2,0.1-2.1,0.2-2.7
			c-4.4,5.8-9.4,10-15.2,12.7C591,265.5,585.1,266.8,579.2,266.8z M594.8,237.8c2.9,0,5.6-0.8,8.2-2.4s5.3-4.1,8.4-7.3L615,211
			c-0.6-4.2-2.1-7.6-4.4-10.3c-2.4-2.6-5.2-3.9-8.4-3.9c-2.5,0-5,0.7-7.4,2.2c-2.4,1.5-4.6,3.4-6.5,5.7c-1.9,2.4-3.5,5.1-4.6,8.3
			c-1.2,3.1-1.7,6.4-1.7,9.8c0,4.6,1.1,8.3,3.3,11C587.4,236.5,590.6,237.8,594.8,237.8z"/>
		<path class="st1" d="M678.9,169.7l31,0l-3.1,14.1c4.2-5.2,9.5-9.2,15.9-11.9s13-4.1,19.9-4.1c4,0,7.3,0.5,10,1.4
			c2.7,0.9,4.8,2.1,6.4,3.6c1.6,1.5,2.8,3.3,3.6,5.3c0.8,2,1.3,4.1,1.5,6.3c4.2-5.2,9.5-9.2,15.7-12.1c6.2-2.9,12.7-4.3,19.5-4.3
			c4.4,0,7.9,0.6,10.6,1.8c2.7,1.2,4.9,2.8,6.5,4.7c1.6,1.9,2.7,4.2,3.4,6.7c0.6,2.5,0.9,5.1,0.9,7.8c0,1.1-0.1,2.7-0.3,4.9
			s-0.6,5-1.4,8.5l-13.5,62.8l-34.5,0l11.5-53.7c0.4-1.9,0.5-3.7,0.5-5.3c0-2.8-0.6-4.8-1.7-6.2c-1.1-1.3-2.5-2-4.1-2
			c-1.2,0-2.6,0.4-4.1,1.1c-1.5,0.7-3,1.7-4.5,2.9c-1.5,1.2-3,2.6-4.4,4.3c-1.4,1.6-2.6,3.4-3.7,5.3l-11.3,53.5l-34.5,0l11.5-53.7
			c0.4-1.9,0.5-3.7,0.5-5.3c0-2.8-0.6-4.8-1.7-6.2c-1.1-1.3-2.6-2-4.3-2c-1.2,0-2.6,0.4-4.1,1.1c-1.5,0.7-3,1.7-4.5,2.9
			c-1.5,1.2-3,2.7-4.4,4.3c-1.4,1.7-2.6,3.4-3.5,5.3L693,265.1l-34.5,0L678.9,169.7z"/>
		<path class="st1" d="M860.2,267.1c-5.3,0-10.1-0.9-14.2-2.8c-4.2-1.9-7.7-4.5-10.6-7.9c-2.9-3.4-5.1-7.4-6.6-12.2
			c-1.5-4.7-2.3-9.9-2.3-15.6c0-8.2,1.4-16,4.2-23.3c2.8-7.3,6.5-13.8,11.3-19.3c4.7-5.6,10.2-9.9,16.4-13.1
			c6.2-3.2,12.8-4.8,19.7-4.8c5.8,0,10.8,1.4,15,4.2c4.2,2.8,7,6.7,8.4,11.8l2.9-13.4l34.7,0l-12.2,56.6c-0.4,1.8-0.5,3.3-0.5,4.4
			c0,3,1.6,4.6,4.9,4.7l-6.2,29c-6,1.2-10.9,1.8-14.7,1.8c-5.4,0-9.7-1-12.9-3.1c-3.1-2.1-4.7-5.7-4.7-10.9c0-1.2,0.1-2.1,0.2-2.7
			c-4.4,5.8-9.4,10-15.2,12.7C872,265.7,866.2,267.1,860.2,267.1z M875.9,238c2.9,0,5.6-0.8,8.2-2.4c2.5-1.6,5.3-4.1,8.4-7.3
			l3.6-17.1c-0.6-4.2-2.1-7.6-4.4-10.3c-2.4-2.6-5.2-3.9-8.4-3.9c-2.5,0-5,0.7-7.4,2.2c-2.4,1.4-4.6,3.4-6.5,5.7
			c-1.9,2.4-3.5,5.1-4.6,8.3c-1.2,3.1-1.7,6.4-1.7,9.8c0,4.6,1.1,8.3,3.3,11C868.4,236.7,871.6,238,875.9,238z"/>
	</g>
</g>
</svg>
